<?xml version="1.0" standalone="no"?>
<!DOCTYPE svg PUBLIC "-//W3C//DTD SVG 20010904//EN"
 "http://www.w3.org/TR/2001/REC-SVG-20010904/DTD/svg10.dtd">
<svg version="1.0" xmlns="http://www.w3.org/2000/svg"
 width="102.000000pt" height="194.000000pt" viewBox="0 0 102.000000 194.000000"
 preserveAspectRatio="xMidYMid meet">

<g transform="translate(0.000000,194.000000) scale(0.100000,-0.100000)"
fill="#000000" stroke="none">
<path d="M750 1858 c-19 -5 -59 -14 -89 -19 -99 -18 -91 13 -91 -344 l0 -315
-70 0 -70 0 0 285 c0 157 -2 285 -4 285 -24 0 -280 -140 -309 -168 l-21 -22
42 -43 c33 -33 44 -54 52 -96 6 -31 10 -230 10 -473 0 -360 -2 -422 -15 -434
-37 -37 -4 -141 81 -254 46 -60 124 -130 145 -130 5 0 9 172 9 425 l0 425 75
0 75 0 0 -300 c0 -165 4 -300 8 -300 28 0 184 147 227 213 17 26 17 29 1 46
-16 18 -17 55 -13 473 4 501 2 477 75 648 31 70 38 96 29 102 -16 10 -104 8
-147 -4z"/>
</g>
</svg>
